<svg width="20" height="20" viewBox="0 0 20 20" fill="none" xmlns="http://www.w3.org/2000/svg">
<path d="M2.5 2.5C2.5 1.11929 3.61929 0 5 0H15C16.3807 0 17.5 1.11929 17.5 2.5V17.5C17.5 18.8807 16.3807 20 15 20H5C3.61929 20 2.5 18.8807 2.5 17.5V2.5ZM5 1.25C4.30964 1.25 3.75 1.80964 3.75 2.5V7.5H16.25V2.5C16.25 1.80964 15.6904 1.25 15 1.25H5ZM16.25 8.75H7.5V11.25H16.25V8.75ZM16.25 12.5H7.5V15H16.25V12.5ZM16.25 16.25H7.5V18.75H15C15.6904 18.75 16.25 18.1904 16.25 17.5V16.25ZM6.25 18.75V16.25H3.75V17.5C3.75 18.1904 4.30964 18.75 5 18.75H6.25ZM3.75 15H6.25V12.5H3.75V15ZM3.75 11.25H6.25V8.75H3.75V11.25Z" fill="black"/>
</svg>
