<svg width="25" height="25" viewBox="0 0 25 25" fill="none" xmlns="http://www.w3.org/2000/svg">
<path d="M9.375 16.4062C9.375 15.9748 9.72478 15.625 10.1562 15.625H14.8438C15.2752 15.625 15.625 15.9748 15.625 16.4062C15.625 16.8377 15.2752 17.1875 14.8438 17.1875H10.1562C9.72478 17.1875 9.375 16.8377 9.375 16.4062Z" fill="#868893"/>
<path d="M6.25 11.7188C6.25 11.2873 6.59978 10.9375 7.03125 10.9375H17.9688C18.4002 10.9375 18.75 11.2873 18.75 11.7188C18.75 12.1502 18.4002 12.5 17.9688 12.5H7.03125C6.59978 12.5 6.25 12.1502 6.25 11.7188Z" fill="#868893"/>
<path d="M3.125 7.03125C3.125 6.59978 3.47478 6.25 3.90625 6.25H21.0938C21.5252 6.25 21.875 6.59978 21.875 7.03125C21.875 7.46272 21.5252 7.8125 21.0938 7.8125H3.90625C3.47478 7.8125 3.125 7.46272 3.125 7.03125Z" fill="#868893"/>
</svg>
