<svg width="70" height="20" viewBox="0 0 70 20" fill="none" xmlns="http://www.w3.org/2000/svg">
<g clip-path="url(#clip0_316_101)">
<path d="M23.8409 5.31818V4.36364H32.2784V5.31818H28.5909V16H27.5284V5.31818H23.8409ZM36.5866 16.1818C35.8329 16.1818 35.1662 15.9905 34.5866 15.608C34.0109 15.2254 33.5601 14.697 33.2344 14.0227C32.9086 13.3447 32.7457 12.5625 32.7457 11.6761C32.7457 10.7822 32.9086 9.99621 33.2344 9.31818C33.5601 8.63636 34.0109 8.10606 34.5866 7.72727C35.1662 7.3447 35.8329 7.15341 36.5866 7.15341C37.3404 7.15341 38.0052 7.3447 38.581 7.72727C39.1567 8.10985 39.6075 8.64015 39.9332 9.31818C40.2628 9.99621 40.4276 10.7822 40.4276 11.6761C40.4276 12.5625 40.2647 13.3447 39.9389 14.0227C39.6132 14.697 39.1605 15.2254 38.581 15.608C38.0052 15.9905 37.3404 16.1818 36.5866 16.1818ZM36.5866 15.2557C37.1927 15.2557 37.706 15.0928 38.1264 14.767C38.5469 14.4413 38.8651 14.0076 39.081 13.4659C39.3007 12.9242 39.4105 12.3277 39.4105 11.6761C39.4105 11.0246 39.3007 10.4261 39.081 9.88068C38.8651 9.33523 38.5469 8.89773 38.1264 8.56818C37.706 8.23864 37.1927 8.07386 36.5866 8.07386C35.9844 8.07386 35.4711 8.23864 35.0469 8.56818C34.6264 8.89773 34.3063 9.33523 34.0866 9.88068C33.8707 10.4261 33.7628 11.0246 33.7628 11.6761C33.7628 12.3277 33.8707 12.9242 34.0866 13.4659C34.3063 14.0076 34.6264 14.4413 35.0469 14.767C35.4673 15.0928 35.9806 15.2557 36.5866 15.2557ZM47.358 10.5341V11.4886H42.517V10.5341H47.358ZM53.517 16H50.108V4.36364H53.7216C54.8314 4.36364 55.7803 4.5947 56.5682 5.05682C57.3598 5.51894 57.9659 6.18182 58.3864 7.04545C58.8068 7.90909 59.017 8.94508 59.017 10.1534C59.017 11.3731 58.8011 12.4205 58.3693 13.2955C57.9413 14.1667 57.3163 14.8352 56.4943 15.3011C55.6761 15.767 54.6837 16 53.517 16ZM51.1705 15.0455H53.4545C54.4545 15.0455 55.2917 14.8485 55.9659 14.4545C56.6402 14.0606 57.1458 13.4981 57.483 12.767C57.8201 12.036 57.9886 11.1648 57.9886 10.1534C57.9848 9.14962 57.8182 8.28598 57.4886 7.5625C57.1629 6.83901 56.678 6.28409 56.0341 5.89773C55.3939 5.51136 54.6023 5.31818 53.6591 5.31818H51.1705V15.0455ZM64.7741 16.1818C64.0204 16.1818 63.3537 15.9905 62.7741 15.608C62.1984 15.2254 61.7476 14.697 61.4219 14.0227C61.0961 13.3447 60.9332 12.5625 60.9332 11.6761C60.9332 10.7822 61.0961 9.99621 61.4219 9.31818C61.7476 8.63636 62.1984 8.10606 62.7741 7.72727C63.3537 7.3447 64.0204 7.15341 64.7741 7.15341C65.5279 7.15341 66.1927 7.3447 66.7685 7.72727C67.3442 8.10985 67.795 8.64015 68.1207 9.31818C68.4503 9.99621 68.6151 10.7822 68.6151 11.6761C68.6151 12.5625 68.4522 13.3447 68.1264 14.0227C67.8007 14.697 67.348 15.2254 66.7685 15.608C66.1927 15.9905 65.5279 16.1818 64.7741 16.1818ZM64.7741 15.2557C65.3802 15.2557 65.8935 15.0928 66.3139 14.767C66.7344 14.4413 67.0526 14.0076 67.2685 13.4659C67.4882 12.9242 67.598 12.3277 67.598 11.6761C67.598 11.0246 67.4882 10.4261 67.2685 9.88068C67.0526 9.33523 66.7344 8.89773 66.3139 8.56818C65.8935 8.23864 65.3802 8.07386 64.7741 8.07386C64.1719 8.07386 63.6586 8.23864 63.2344 8.56818C62.8139 8.89773 62.4938 9.33523 62.2741 9.88068C62.0582 10.4261 61.9503 11.0246 61.9503 11.6761C61.9503 12.3277 62.0582 12.9242 62.2741 13.4659C62.4938 14.0076 62.8139 14.4413 63.2344 14.767C63.6548 15.0928 64.1681 15.2557 64.7741 15.2557Z" fill="black"/>
<path d="M2.5 2.5C2.5 1.11929 3.61929 0 5 0H15C16.3807 0 17.5 1.11929 17.5 2.5V17.5C17.5 18.8807 16.3807 20 15 20H5C3.61929 20 2.5 18.8807 2.5 17.5V2.5ZM5 1.25C4.30964 1.25 3.75 1.80964 3.75 2.5V7.5H16.25V2.5C16.25 1.80964 15.6904 1.25 15 1.25H5ZM16.25 8.75H7.5V11.25H16.25V8.75ZM16.25 12.5H7.5V15H16.25V12.5ZM16.25 16.25H7.5V18.75H15C15.6904 18.75 16.25 18.1904 16.25 17.5V16.25ZM6.25 18.75V16.25H3.75V17.5C3.75 18.1904 4.30964 18.75 5 18.75H6.25ZM3.75 15H6.25V12.5H3.75V15ZM3.75 11.25H6.25V8.75H3.75V11.25Z" fill="black"/>
</g>
<defs>
<clipPath id="clip0_316_101">
<rect width="70" height="20" fill="white"/>
</clipPath>
</defs>
</svg>
